<?xml version="1.0" standalone="no"?>
<!DOCTYPE svg PUBLIC "-//W3C//DTD SVG 20010904//EN"
 "http://www.w3.org/TR/2001/REC-SVG-20010904/DTD/svg10.dtd">
<svg version="1.0" xmlns="http://www.w3.org/2000/svg"
 width="945.000000pt" height="1182.000000pt" viewBox="0 0 945.000000 1182.000000"
 preserveAspectRatio="xMidYMid meet">

<g transform="translate(0.000000,1182.000000) scale(0.100000,-0.100000)"
fill="#000000" stroke="none">
<path d="M1462 11270 c-258 -27 -469 -136 -596 -309 -114 -155 -176 -382 -176
-646 0 -504 211 -838 610 -964 138 -44 287 -58 447 -42 332 34 553 165 678
403 95 180 136 423 114 685 -43 539 -361 852 -889 877 -58 2 -142 1 -188 -4z
m303 -135 c140 -37 267 -143 331 -279 97 -204 128 -534 78 -836 -64 -385 -261
-590 -567 -590 -249 0 -435 149 -516 412 -40 132 -54 275 -48 488 10 320 61
496 192 656 58 70 187 142 285 157 62 10 191 6 245 -8z"/>
<path d="M7730 11270 c-378 -39 -606 -229 -698 -582 -50 -187 -56 -522 -13
-681 52 -195 132 -337 255 -454 120 -115 262 -187 452 -229 165 -37 581 -17
842 41 22 5 22 6 22 200 l0 195 -83 0 -82 0 -32 -69 c-87 -187 -213 -261 -440
-261 -161 0 -276 45 -387 150 -84 80 -128 149 -167 263 -56 161 -64 222 -63
457 1 231 14 326 68 482 67 191 202 320 377 358 76 17 257 8 327 -16 75 -25
146 -91 167 -155 14 -41 16 -81 14 -212 -4 -141 -7 -167 -25 -202 -22 -42 -72
-78 -136 -95 -35 -10 -38 -14 -38 -45 l0 -35 340 0 340 0 0 33 c0 30 -5 36
-50 56 -56 25 -84 56 -101 110 -6 21 -13 165 -16 353 l-6 317 -49 10 c-72 16
-75 15 -138 -40 l-58 -51 -89 36 c-145 57 -361 84 -533 66z"/>
<path d="M2950 11217 c0 -31 3 -34 48 -46 69 -17 111 -46 130 -89 15 -34 17
-105 17 -792 0 -724 -1 -757 -19 -794 -22 -44 -60 -70 -128 -87 -45 -12 -48
-15 -48 -46 l0 -33 503 0 c385 0 524 3 597 14 317 48 478 179 513 418 33 228
-81 457 -280 560 -154 81 -306 108 -611 108 l-214 0 5 293 c4 322 9 349 64
397 29 26 114 60 150 60 8 0 13 13 13 35 l0 35 -370 0 -370 0 0 -33z m875
-918 c264 -36 387 -155 402 -387 14 -232 -86 -381 -294 -438 -64 -17 -375 -32
-437 -20 l-36 7 0 424 0 425 144 0 c80 0 179 -5 221 -11z"/>
<path d="M4910 11216 c0 -32 3 -35 38 -41 55 -9 113 -45 136 -85 21 -34 21
-46 21 -800 0 -718 -1 -767 -18 -798 -22 -39 -64 -67 -129 -83 -45 -12 -48
-15 -48 -46 l0 -33 508 0 c540 0 621 5 767 51 100 30 161 64 220 120 96 90
130 189 123 350 -3 83 -8 104 -39 169 -20 41 -55 96 -78 122 -60 67 -175 139
-292 184 l-100 38 73 38 c112 59 172 126 342 383 84 127 173 253 198 280 50
56 122 99 181 110 34 7 37 10 37 41 l0 34 -234 0 -234 0 -55 -72 c-30 -40
-103 -149 -162 -243 -190 -299 -253 -393 -294 -434 -71 -71 -86 -75 -273 -79
l-168 -4 0 299 c0 184 4 313 11 337 16 57 56 92 128 112 59 17 61 18 61 51 l0
33 -360 0 -360 0 0 -34z m943 -941 c102 -21 171 -57 232 -119 64 -66 94 -138
104 -246 21 -251 -85 -394 -331 -444 -77 -16 -378 -23 -412 -10 -14 5 -16 52
-16 420 l0 414 178 0 c116 0 201 -5 245 -15z"/>
<path d="M4455 8730 c-1414 -99 -2651 -953 -3281 -2265 -623 -1297 -535 -2851
229 -4065 188 -299 443 -604 689 -827 549 -496 1177 -818 1858 -952 518 -101
996 -101 1504 0 605 121 1159 383 1659 782 802 641 1345 1606 1486 2643 68
496 54 968 -44 1450 -168 825 -574 1567 -1180 2152 -631 610 -1441 986 -2305
1072 -149 15 -474 20 -615 10z m115 -4092 l0 -3911 -112 7 c-238 14 -543 68
-756 132 -383 116 -781 331 -1129 610 -124 100 -360 329 -472 459 -759 878
-1105 2064 -951 3261 114 890 498 1693 1104 2313 367 374 765 643 1224 828
305 122 702 205 1010 211 l82 2 0 -3912z m535 3897 c681 -79 1236 -312 1764
-742 145 -118 426 -402 542 -548 492 -619 773 -1296 876 -2115 25 -198 25
-778 0 -980 -97 -775 -379 -1476 -822 -2045 -240 -307 -494 -551 -815 -780
-58 -42 -56 -38 29 64 202 242 334 541 398 906 25 145 25 606 0 756 -138 822
-668 1365 -1582 1622 -245 69 -399 101 -552 114 l-73 6 0 1878 0 1879 53 0
c28 0 111 -7 182 -15z m-55 -3951 c234 -36 521 -125 735 -229 577 -279 899
-733 986 -1385 16 -119 16 -477 0 -590 -36 -258 -86 -428 -182 -623 -236 -478
-719 -816 -1369 -961 -107 -24 -300 -56 -335 -56 -13 0 -15 218 -15 1935 l0
1935 43 -6 c23 -3 85 -12 137 -20z"/>
</g>
</svg>
